# xmcd
#
# Track frame offsets: 
#        150
#        20061
#        37899
#        61876
#        88829
#        104669
#        125016
#        148783
#        170190
#
# Disc length: 2356 seconds
#
# Revision: 0
# Processed by: cddbd v1.5.2PL0 Copyright (c) Steve Scherf et al.
# Submitted via: ExactAudioCopy v0.99pb5
#
DISCID=85093209
DTITLE=Thrasher - Burning At The Speed Of Light
DYEAR=1985
DGENRE=Heavy Metal
TTITLE0=Hot And Heavy
TTITLE1=Ride The Viper
TTITLE2=Widowmaker
TTITLE3=Black Lace And Leather
TTITLE4=She Likes It Rough
TTITLE5=Slipping Away
TTITLE6=Burning At The Speed Of Light
TTITLE7=Bad Boys
TTITLE8=Never Say Die
EXTD=
EXTT0=
EXTT1=
EXTT2=
EXTT3=
EXTT4=
EXTT5=
EXTT6=
EXTT7=
EXTT8=
PLAYORDER=
